<?xml version="1.0" encoding="utf-8"?>
<!-- Generator: Adobe Illustrator 18.0.0, SVG Export Plug-In . SVG Version: 6.00 Build 0)  -->
<!DOCTYPE svg PUBLIC "-//W3C//DTD SVG 1.1//EN" "http://www.w3.org/Graphics/SVG/1.1/DTD/svg11.dtd">
<svg version="1.1" id="Layer_1" xmlns="http://www.w3.org/2000/svg" xmlns:xlink="http://www.w3.org/1999/xlink" x="0px" y="0px"
	 viewBox="0 0 148.9 172.3" enable-background="new 0 0 148.9 172.3" xml:space="preserve">
<g>
	<path fill="#1D1E1E" d="M49.8,3.8H5.3 M49.8,2.6H5.3V5h44.4V2.6z M49.8,166.6H5.3 M49.8,165.5H5.3v2.4h44.4V165.5z M24.3,80.6
		c8.2,0,15.1-6.4,16.7-15.5l-0.7-0.3c-2.8,10.7-8.7,13.3-13.8,13.3c-2.7,0-5.8-0.7-7.5-2.1c-4-3.2-7-8.3-7-18.7
		c0-8.7,1.8-14.2,4.2-17.6c2.4-3.2,5.6-4.3,8.5-4.3c8.1,0,12.5,6.4,15,16.6h0.7v-16h-0.5L38.4,39h-0.2c-1.9-2.4-7.7-4.7-13.6-4.7
		c-10.6,0-21.4,7-21.4,23.1C3.3,73.4,13.6,80.6,24.3,80.6 M44.5,79.7v-0.3c0.5-0.1,1-0.1,1.6-0.3c1.2-0.5,1.8-0.9,2.2-2.7
		c0.3-0.9,0.3-2.7,0.3-4.2V59.1c0-1.3,0-4.2-0.1-5.3c-0.2-1.3-0.6-1.8-1.2-2.3c-0.6-0.5-1.6-0.5-2.2-0.5v-0.4h10.3
		c0.3,0,0.5,0.1,0.5,0.5c0,1.1-0.1,2.5-0.1,4.3v16.9c0,1.5,0,3.3,0.3,4.2c0.4,1.8,1,2.2,2.2,2.7c0.5,0.2,1.1,0.2,1.6,0.3v0.3H44.5z
		 M52,43.3c-2,0-4-1.6-4-3.9c0-2.4,2.1-4.1,4-4.1c2,0,4.1,1.5,4.1,4.1C56.1,41.9,53.9,43.3,52,43.3 M79.9,75.5
		c-1,1.6-2.8,2.4-4.6,2.4c-2.8,0-3.6-1.7-3.6-4.1l0.3-22h6.6v-1.2H72V38.7h-0.7c-2.2,8.3-5.5,11.5-10.4,12.4v0.5
		c1,0.1,2.8,0.1,4,0.2c-0.1,3.3-0.3,19.9-0.3,21.2c0,2.6,0.5,4.1,2,5.4c1.4,1.4,3.5,1.9,6.2,1.9c3.5,0,6.5-2.5,7.4-4.5L79.9,75.5z
		 M107.8,53.2c0.8-1.3,2-2.1,3.7-2.3v-0.3h-9.1v0.3c0.6,0.1,1.4,0.1,2,0.5c0.7,0.4,1.2,1.1,1.2,2.2c0,1.4-0.2,2.8-1.1,5.1L100,71
		h-0.1l-4.5-12.7c-0.9-2.4-1.2-3.6-1.2-4.8c0-0.9,0.3-1.6,1-2c0.5-0.3,1.4-0.5,2-0.5v-0.3H81.6v0.3c0.6,0.1,1.6,0.3,2.2,0.7
		c1,0.6,1.5,1.4,2.2,2.5c0.5,1,1.4,2.8,2.4,5.7l7.6,20c0.3,0.8,0.1,1.6,0,1.8c0,0-1,2.6-1.2,3c-1.5,3.9-3.2,6.4-4.4,6.4
		c-0.9,0-1.4-0.9-2.1-2.2c-0.8-1.5-1.4-2.2-3.3-2.2c-2,0-3.3,1.3-3.3,3.1c0,3,2.2,4.5,4.9,4.5c2.3,0,4.3-0.9,5.6-2.7
		c1.4-2,2.6-4.7,3.5-6.9c2-5,5.2-13.3,9.9-26.3C106.7,55.6,107.3,54.1,107.8,53.2 M18.4,134.8c7.4,0,14.7-4.8,14.7-13.5
		c0-9.7-5.7-11.5-12.7-14.9c-4.8-2.3-9.4-3.8-9.4-10.2c0-4.3,2.7-6.7,6.3-6.7c3.9,0,6,1.6,7.7,3.6c1.8,2,3.7,6.2,4.5,9.4h0.4
		l-0.9-13h-0.5l-1.8,2.6h-0.1c-1.6-2.1-5.4-3.7-9.4-3.7C9.7,88.4,4,93.8,4,100.5c0,8.3,6.1,12,12.3,14.6c6.9,2.8,9.7,5,9.7,10.2
		c0,4.3-1.9,8.5-7.6,8.5c-7.6,0-11.5-7.5-13.7-15.2H4.2l0.5,15H5l1.9-3.1h0.3C8.9,132.4,13.5,134.8,18.4,134.8 M69.5,133.8v-0.3
		c-0.5-0.1-0.9-0.1-1.5-0.3c-1.3-0.5-1.8-0.9-2.2-2.6c-0.3-1.4-0.3-3.7-0.3-5.6v-11.7c0-3.4-0.8-5.5-1.7-6.6
		c-1.3-1.6-3.7-2.4-6.8-2.4c-1.6,0-4.1,0.7-5.7,1.8c-1.5,1-3.1,2.6-3.9,5.4h-0.1V95.9c0-3.1,0.1-6.8,0.1-7.9c0-0.4-0.1-0.5-0.4-0.5
		H36v0.3c0.6,0.1,1.9,0.3,2.6,0.8c0.7,0.5,1.2,0.9,1.4,2.2c0.2,1.2,0.2,3.2,0.2,4.4V125c0,1.9,0,4.5-0.3,5.6
		c-0.4,1.8-1.2,2.3-2.2,2.6c-0.5,0.2-1.1,0.3-1.6,0.3v0.3h15.1v-0.3c-0.5-0.1-1-0.1-1.5-0.3c-1.4-0.5-1.8-1-2.2-2.8
		c-0.3-1.3-0.2-3.3-0.2-5.1v-5.9c0-2,0.1-3.7,0.3-5.3c0.4-4.9,3.8-8,6.6-8c1.6,0,2.5,0.5,3.3,1.5c0.7,0.9,1,2.2,1,5.1v12.6
		c0,1.8,0,3.7-0.3,5.1c-0.3,1.8-0.7,2.2-2,2.8c-0.5,0.2-1.1,0.3-1.6,0.3v0.3H69.5z M79.6,117.6c0,7.1,1.3,11,3.1,13.1
		c1.2,1.4,2.8,1.9,4.7,1.9c5.6,0,7.8-4,9-8.3l0.7,0.2c-1.2,5.8-5.3,9.9-11.4,9.9c-3.3,0-7-0.8-9.6-3.3c-2.9-2.8-4.3-6.4-4.3-11.7
		c0-9.6,6-15.3,13.2-15.3c8.5,0,12.4,5.8,12.4,11.5c0,0.5,0,1.4-0.1,2H79.6z M88.6,106.3c-0.9-0.9-2-1.4-3.3-1.4
		c-1.3,0-2.2,0.4-3.1,1.4c-1.4,1.4-2.3,4.9-2.5,10.4h8.5c1.8,0,2.4-0.6,2.4-2.8C90.5,110.2,89.8,107.7,88.6,106.3 M115.1,133.8v-0.3
		c-0.5-0.1-1-0.1-1.6-0.3c-1.2-0.5-1.8-0.9-2.2-2.6c-0.3-1.4-0.3-3.7-0.3-5.6V92.2c0-1.8,0.1-3.3,0.1-4.3c0-0.3-0.1-0.5-0.4-0.5
		h-10.4v0.3c0.6,0.1,1.6,0.1,2.2,0.6c0.6,0.5,1,1,1.2,2.2c0.1,1.1,0.2,4.1,0.2,5.4V125c0,2-0.1,4.3-0.3,5.6c-0.5,1.8-1,2.1-2.2,2.6
		c-0.5,0.2-1,0.2-1.5,0.3v0.3H115.1z M139,95.9c2,0,3.3-1.5,3.3-3.3c0-1.8-0.8-3.4-2.8-4.4c-1.4-0.7-3.4-1.1-6-1.1
		c-3.5,0-6.2,1.4-7.7,2.9c-1.6,1.7-3.5,4.5-3.5,10v4.7h-3.8v1.2h3.8v19c0,1.9,0.1,4.3-0.3,5.6c-0.4,1.8-0.9,2.1-2.2,2.6
		c-0.5,0.2-1.1,0.3-1.6,0.3v0.3h15.9v-0.3c-0.5-0.1-1.5-0.1-2-0.3c-1.4-0.4-1.8-0.9-2.3-2.7c-0.2-1.1-0.3-3.7-0.3-5.6v-19h6.4v-1.2
		h-6.4V96c0-2.6,0.1-4.6,0.7-5.9c0.7-1.5,1.5-2.2,2.9-2.2c0.7,0,1.2,0.3,1.5,1.1c0.3,0.6,0.5,1.7,0.6,2.8c0.1,0.8,0.3,1.6,0.6,2.2
		C136.4,95.3,137.5,95.9,139,95.9"/>
</g>
</svg>
